HIERARCHY
ROOT Hips
{
  OFFSET -35.2597 29.1586 114.425
  CHANNELS 6 Xposition Yposition Zposition Zrotation Xrotation Yrotation
  JOINT LeftUpLeg
  {
    OFFSET 8.64259 1.95398 -2.38835
    CHANNELS 3 Zrotation Xrotation Yrotation
    JOINT LeftLeg
    {
      OFFSET 43.7702 0 0
      CHANNELS 3 Zrotation Xrotation Yrotation
      JOINT LeftFoot
      {
        OFFSET 40.6238 0 0
        CHANNELS 3 Zrotation Xrotation Yrotation
        JOINT LeftToeBase
        {
          OFFSET 12.7242 0 0
          CHANNELS 3 Zrotation Xrotation Yrotation
          End Site
          {
            OFFSET 0 0 0
          }
        }
      }
    }
  }
  JOINT RightUpLeg
  {
    OFFSET -8.2249 1.95398 -2.59336
    CHANNELS 3 Zrotation Xrotation Yrotation
    JOINT RightLeg
    {
      OFFSET 43.5653 0 0
      CHANNELS 3 Zrotation Xrotation Yrotation
      JOINT RightFoot
      {
        OFFSET 40.6238 0 0
        CHANNELS 3 Zrotation Xrotation Yrotation
        JOINT RightToeBase
        {
          OFFSET 12.7242 0 0
          CHANNELS 3 Zrotation Xrotation Yrotation
          End Site
          {
            OFFSET 0 0 0
          }
        }
      }
    }
  }
  JOINT Spine
  {
    OFFSET 0.165834 0.87714 6.61349
    CHANNELS 3 Zrotation Xrotation Yrotation
    JOINT Spine1
    {
      OFFSET 7.38963 1.71661e-005 0
      CHANNELS 3 Zrotation Xrotation Yrotation
      JOINT Spine2
      {
        OFFSET 11.9445 1.14441e-005 0
        CHANNELS 3 Zrotation Xrotation Yrotation
        JOINT Spine3
        {
          OFFSET 14.7254 4.19617e-005 0
          CHANNELS 3 Zrotation Xrotation Yrotation
          JOINT Spine4
          {
            OFFSET 10.9679 0 0
            CHANNELS 3 Zrotation Xrotation Yrotation
            JOINT RightShoulder
            {
              OFFSET 2.46616 -1.6653 3.69651
              CHANNELS 3 Zrotation Xrotation Yrotation
              JOINT RightArm
              {
                OFFSET 13.0012 0 0
                CHANNELS 3 Zrotation Xrotation Yrotation
                JOINT RightForeArm
                {
                  OFFSET 28.7848 1.62311e-005 0
                  CHANNELS 3 Zrotation Xrotation Yrotation
                  JOINT RightHand
                  {
                    OFFSET 26.5688 1.62095e-005 0
                    CHANNELS 3 Zrotation Xrotation Yrotation
                    End Site
                    {
                      OFFSET 0 0 0
                    }
                  }
                }
              }
            }
            JOINT LeftShoulder
            {
              OFFSET 2.38034 -1.29275 -3.7523
              CHANNELS 3 Zrotation Xrotation Yrotation
              JOINT LeftArm
              {
                OFFSET 16.3182 6.07031e-005 0
                CHANNELS 3 Zrotation Xrotation Yrotation
                JOINT LeftForeArm
                {
                  OFFSET 27.0901 0 0
                  CHANNELS 3 Zrotation Xrotation Yrotation
                  JOINT LeftHand
                  {
                    OFFSET 24.5451 1.51738e-005 0
                    CHANNELS 3 Zrotation Xrotation Yrotation
                    End Site
                    {
                      OFFSET 0 0 0
                    }
                  }
                }
              }
            }
            JOINT Neck
            {
              OFFSET 5.0226 -0.0266342 0
              CHANNELS 3 Zrotation Xrotation Yrotation
              JOINT Head
              {
                OFFSET 6.69364 2.86102e-005 0
                CHANNELS 3 Zrotation Xrotation Yrotation
                End Site
                {
                  OFFSET 0 0 0
                }
              }
            }
          }
        }
      }
    }
  }
}
MOTION
Frames:	10
Frame Time:	0.0416667
11.5369 96.394 -3.94617 -98.6416 -41.0769 -102.815 -179.708 16.8295 83.1268 -8.91208 23.251 -0.978232 59.9992 0.509867 -4.36047 25.4343 -8.07106 11.516 173.106 -14.0162 87.7934 -28.9767 -44.8834 -5.52112 75.9191 -13.0135 -5.55497 19.532 1.01467 7.68245 1.92671 8.26875 -89.6866 10.3357 3.98183 0.276995 -1.32918 3.99016 0.10119 -23.9082 3.71425 1.46253 -3.89559 3.71424 1.46252 85.5606 -33.5447 -113.74 35.9799 8.38651 -17.0335 -5.63631 -46.5897 -5.66027 -27.2103 5.37967 -27.831 -85.3171 -63.0002 87.326 -16.1955 -16.4772 9.73848 2.82523 22.5807 -3.88364 -0.166096 -0.208426 -10.5479 -0.58137 -3.19928 2.01008 -1.0141 -3.43434 -8.21838 
4.24712 96.327 2.64923 -99.3748 -34.4461 -104.932 -179.247 16.1957 81.1013 -21.09 22.3738 -0.697379 58.562 -0.994902 -4.50346 23.4534 -7.14328 7.77437 173.17 -15.5614 85.2182 -41.0821 -46.6565 -12.7966 67.3141 -5.19824 -4.02263 27.2436 -3.09215 12.4609 2.17329 8.2685 -89.5354 10.3318 4.54229 0.529002 -1.33126 4.56116 0.328158 -23.9216 4.17295 1.87197 -3.90891 4.17296 1.87196 87.0967 -32.5703 -111.315 41.5511 7.23916 -9.24447 -5.5641 -45.6625 -5.61322 -22.4178 2.257 -16.9134 -85.8377 -65.7931 86.9576 -14.5558 -17.0134 5.60063 2.73231 19.5776 -3.78749 1.74653 -0.34296 -11.3807 0.476636 -3.99992 2.3374 -2.57262 -4.15852 -9.58587 
-2.50452 96.3423 7.7321 -99.7153 -27.983 -106.178 -177.391 12.0082 80.0668 -27.685 18.5366 -2.00547 67.9034 4.98077 -2.49593 17.0812 -10.5167 6.71119 172.993 -8.46444 80.7464 -54.9485 -43.3295 -11.9336 53.7068 4.32041 2.47405 32.5884 -2.38683 3.30602 1.72967 8.24424 -89.1538 10.3635 3.83318 1.34717 -1.30231 3.88874 1.17693 -23.8666 3.25105 2.43772 -3.85395 3.25107 2.43772 85.485 -34.6805 -113.367 42.1888 8.42744 -2.8922 -5.77296 -48.2605 -5.75157 -15.2821 1.03866 -13.4982 -85.8302 -63.0953 86.666 -15.0762 -17.0392 0.416074 2.80182 21.8606 -3.85884 0.252328 -0.218799 -10.4169 0.788895 -3.57832 -0.461446 -2.28465 -3.37508 -8.15949 
-8.25325 97.0188 11.0198 -98.7272 -20.0567 -103.666 -176.138 6.15361 81.4446 -27.3952 12.2508 -2.41993 72.9488 8.29733 -1.33161 16.5179 -10.1147 5.55857 176.656 3.00491 82.0356 -63.7856 -28.2866 -8.8985 60.1114 0.0178208 0.792372 26.9731 -0.352695 3.57743 1.3209 8.23115 -89.2136 10.3937 2.9916 1.29938 -1.2743 3.04589 1.16635 -23.8244 2.46279 2.13867 -3.81177 2.46281 2.13868 85.8147 -35.0788 -112.596 41.5414 9.22448 -0.431635 -5.94821 -50.2676 -5.87393 -17.1481 1.6941 -16.8515 -86.1898 -61.185 85.9636 -14.8938 -17.38 -8.0123 2.89259 24.6218 -3.95328 -0.607533 -0.122519 -6.27145 1.14664 -2.50992 -1.97374 -2.03656 -2.12214 -7.01128 
-13.7778 98.1386 13.1309 -97.607 -12.8906 -98.4358 -174.748 -0.177146 85.1503 -23.7043 7.0732 -1.95174 74.9277 8.76014 -3.27589 20.659 -10.9605 11.0021 178.989 12.8857 87.6793 -58.3641 -16.5141 -5.98067 67.1486 -5.08929 -2.86457 25.2156 0.597093 2.81682 0.780413 8.17402 -89.605 10.524 1.73599 0.631431 -1.14591 1.76211 0.554385 -23.6869 1.46596 1.12404 -3.6743 1.46598 1.12404 86.8676 -34.5546 -110.902 40.2913 9.59605 -0.864798 -5.85953 -49.271 -5.81141 -20.1003 2.83349 -21.6035 -86.2303 -58.8134 85.6126 -13.0228 -18.5327 -15.316 2.82991 22.732 -3.89031 0.387111 -0.165598 -7.57025 -0.917103 -0.857192 -2.79759 -1.02781 -0.477129 -5.5089 
-19.5093 98.2652 14.7044 -96.1631 -7.194 -93.8773 -173.336 -4.68945 88.0451 -20.711 2.29323 -1.44846 77.4751 9.54357 -4.0817 22.2562 -11.2872 13.1759 179.433 19.6787 92.9555 -41.7059 -15.1964 -3.0177 64.9849 -3.52047 -1.42824 25.0254 0.492959 3.34579 0.294432 8.11387 -89.8761 10.6457 0.643424 0.187934 -1.02514 0.65109 0.159427 -23.5612 0.557183 0.372627 -3.54854 0.557221 0.372637 86.5272 -36.3703 -110.781 37.5965 10.5023 -1.33478 -5.83101 -48.9437 -5.79166 -23.6958 3.60492 -22.7477 -85.857 -55.0144 85.6396 -10.7082 -20.1107 -21.3045 2.72837 19.4587 -3.78489 4.82162 -0.614392 -12.689 -1.08392 0.602104 -5.18433 -0.536903 1.25822 -2.46933 
-25.9782 97.4225 15.8624 -94.9315 -5.24459 -91.41 -172.218 -9.61004 89.9949 -17.4929 -0.308604 -1.07656 81.4895 11.4958 -5.48674 21.3706 -12.7191 14.3892 179.41 21.3566 95.4554 -20.0189 -15.4699 -0.535437 62.6482 -2.28305 -1.46166 22.2132 1.06251 4.8827 -0.0892721 8.06439 -90.039 10.7456 -0.195669 -0.059132 -0.925343 -0.198082 -0.0504779 -23.4606 -0.168861 -0.115212 -3.44791 -0.168823 -0.115202 87.0588 -37.5484 -109.379 38.8835 10.1998 -0.426462 -5.0845 -38.713 -5.33079 -27.0028 3.57131 -20.3369 -85.8928 -51.9773 85.1768 -10.7587 -20.7838 -29.1358 2.61252 15.5344 -3.67199 8.18126 -0.981587 -14.0322 -0.515831 0.290323 -6.35216 -0.539228 1.1367 -1.54033 
-33.9197 96.1544 16.9802 -94.8846 -7.55091 -89.8289 -170.986 -15.3467 92.4585 -15.1574 1.79592 0.103422 82.4347 13.753 -2.91942 24.8511 -8.67109 11.7813 179.591 20.9039 95.6159 -10.7565 -13.8606 -0.262461 63.9971 -3.15732 -2.0944 19.3133 1.99383 5.39982 -0.48971 8.07297 -90.2567 10.7251 -1.09352 -0.410892 -0.945498 -1.11053 -0.362369 -23.4828 -0.919503 -0.720569 -3.47017 -0.919474 -0.720556 86.829 -38.8404 -109.299 37.5016 11.4425 3.92918 -5.17044 -40.0538 -5.37363 -22.21 2.81608 -20.1357 -86.5243 -52.5082 84.3242 -13.2497 -19.7374 -37.9343 2.60209 14.7804 -3.65645 9.86829 -1.27691 -15.3157 0.829864 -0.822304 -6.63034 -1.69577 0.176018 -1.97981 
-43.7589 95.7158 17.845 -95.8025 -9.78251 -87.1329 -167.788 -18.7799 98.0591 -18.4574 5.4942 1.33034 77.1022 11.3022 -1.16481 38.8803 -2.01817 17.6283 178.254 20.7175 97.1957 -18.3054 -12.1227 1.31617 59.8052 0.616993 -1.1085 23.3436 1.4152 2.60404 -0.627587 8.07073 -90.5863 10.7265 -1.52 -1.02558 -0.943846 -1.56363 -0.957698 -23.4804 -1.14155 -1.43498 -3.46774 -1.14153 -1.43497 86.9045 -39.2462 -109.019 36.9786 12.3079 8.12529 -5.39132 -43.3222 -5.50518 -12.9749 1.27932 -16.7913 -87.0302 -53.8692 83.7956 -17.2842 -16.889 -42.0007 2.86276 24.5821 -3.90764 7.35137 -1.3745 -19.7653 1.21725 -1.79897 -7.44039 -2.76747 -0.63607 -1.6589 
-53.6302 95.9047 18.5344 -97.1466 -9.19712 -85.6852 -167.13 -14.5523 101.016 -34.4483 8.25102 2.51835 65.2661 4.04395 1.583 36.0296 -4.46225 18.4876 177.059 18.6922 99.0126 -27.9954 -12.3957 2.50622 62.7603 -0.786441 -1.1921 17.0033 3.69213 3.4872 -0.600592 8.00215 -90.7008 10.86 -1.51963 -1.25156 -0.810604 -1.57325 -1.18347 -23.345 -1.07326 -1.65036 -3.33232 -1.0733 -1.65038 87.5788 -38.3954 -108.156 38.5551 12.185 9.92681 -5.19743 -40.4741 -5.39071 -11.8319 1.14869 -17.0294 -87.1621 -55.5266 83.8589 -19.5939 -15.114 -37.8323 3.60363 40.7734 -4.67783 3.04697 -0.970242 -22.798 0.0491431 -1.89318 -6.03352 -3.06327 -0.972771 -3.10552 
